# xmcd
#
# Track frame offsets:
# 150
# 17905
# 41392
# 63155
#
# Disc length: 1080 seconds
#
#
# Revision: 1
# Processed by: cddbd v1.5.1PL2 Copyright (c) Steve Scherf et al.
# Submitted via: FreeRIP 2.945 
#
DISCID=28043604
DTITLE=Dodgy - Staying Out For The Summer Single
DYEAR=1995
DGENRE=Indie
TTITLE0=Staying Out For The Summer (live)
TTITLE1=Waiting For The Day (live)
TTITLE2=One Day (live)
TTITLE3=(Get Off Your) High Horse (live)
EXTD=London Astoria, 16th March 1995
EXTT0=
EXTT1=
EXTT2=
EXTT3=
PLAYORDER=
